HIERARCHY
ROOT RootJoint
{
    OFFSET   0.000000   0.000000   0.000000
    CHANNELS 6 Xposition Yposition Zposition Xrotation Yrotation Zrotation
    JOINT pelvis_lowerback
    {
        OFFSET   0.000000   0.093605   0.000000
        CHANNELS 3 Xrotation Yrotation Zrotation
        JOINT lowerback_torso
        {
            OFFSET   0.000000   0.100000   0.000000
            CHANNELS 3 Xrotation Yrotation Zrotation
            JOINT torso_head
            {
                OFFSET   0.000000   0.282350   0.000000
                CHANNELS 3 Xrotation Yrotation Zrotation
                End Site
                {
                    OFFSET   0.000000   0.192650   0.000000
                }
            }
            JOINT rTorso_Clavicle
            {
                OFFSET  -0.001000   0.157500   0.000000
                CHANNELS 3 Xrotation Yrotation Zrotation
                JOINT rShoulder
                {
                    OFFSET  -0.117647   0.000000   0.000000
                    CHANNELS 3 Xrotation Yrotation Zrotation
                    JOINT rElbow
                    {
                        OFFSET  -0.245000   0.000000   0.000000
                        CHANNELS 3 Xrotation Yrotation Zrotation
                        JOINT rWrist
                        {
                            OFFSET  -0.240000   0.000000   0.000000
                            CHANNELS 3 Xrotation Yrotation Zrotation
                            End Site
                            {
                                OFFSET  -0.116353  -0.002500   0.000000
                            }
                        }
                    }
                }
            }
            JOINT lTorso_Clavicle
            {
                OFFSET   0.001000   0.157500   0.000000
                CHANNELS 3 Xrotation Yrotation Zrotation
                JOINT lShoulder
                {
                    OFFSET   0.117647   0.000000   0.000000
                    CHANNELS 3 Xrotation Yrotation Zrotation
                    JOINT lElbow
                    {
                        OFFSET   0.245000   0.000000   0.000000
                        CHANNELS 3 Xrotation Yrotation Zrotation
                        JOINT lWrist
                        {
                            OFFSET   0.240000   0.000000   0.000000
                            CHANNELS 3 Xrotation Yrotation Zrotation
                            End Site
                            {
                                OFFSET   0.116353  -0.002500   0.000000
                            }
                        }
                    }
                }
            }
        }
    }
    JOINT rHip
    {
        OFFSET  -0.100000  -0.051395   0.000000
        CHANNELS 3 Xrotation Yrotation Zrotation
        JOINT rKnee
        {
            OFFSET   0.000000  -0.410000   0.000000
            CHANNELS 3 Xrotation Yrotation Zrotation
            JOINT rAnkle
            {
                OFFSET   0.000000  -0.390000   0.000000
                CHANNELS 3 Xrotation Yrotation Zrotation
                JOINT rToeJoint
                {
                    OFFSET   0.000000  -0.050000   0.130000
                    CHANNELS 3 Xrotation Yrotation Zrotation
                    End Site
                    {
                        OFFSET  -0.010000   0.002000   0.060000
                    }
                }
            }
        }
    }
    JOINT lHip
    {
        OFFSET   0.100000  -0.051395   0.000000
        CHANNELS 3 Xrotation Yrotation Zrotation
        JOINT lKnee
        {
            OFFSET   0.000000  -0.410000   0.000000
            CHANNELS 3 Xrotation Yrotation Zrotation
            JOINT lAnkle
            {
                OFFSET   0.000000  -0.390000   0.000000
                CHANNELS 3 Xrotation Yrotation Zrotation
                JOINT lToeJoint
                {
                    OFFSET   0.000000  -0.050000   0.130000
                    CHANNELS 3 Xrotation Yrotation Zrotation
                    End Site
                    {
                        OFFSET   0.010000   0.002000   0.060000
                    }
                }
            }
        }
    }
}
MOTION
Frames: 12
Frame Time:   0.008333
 -2.435807   0.917483   5.109859  -7.628159  -6.627044  -3.689960  12.145177   3.306643   1.488925   0.965007   0.641357   1.637524   0.528716  -0.883400   1.827782   0.936080   6.937344   4.966531  -1.935628  15.894537  48.991283  -0.006344  61.946994   0.004662  -0.736076   2.850536  -9.604777  -0.290700   0.003706  -2.429579 -12.423235   3.663314 -35.984262  -0.041093 -72.024510  -0.030983  -4.310628  -3.909116  17.236030  -6.611395  -0.652377   4.885605  24.444855  -0.000111  -0.001986   0.980513  -0.702221  -2.014926 -17.253433  -0.000221   0.001618  -0.871949  -1.113465   4.027985  57.526122  -0.001368   0.001702  -6.397825   1.518831  -3.483128  -0.064972   0.000118  -0.001166
 -2.435038   0.917312   5.104896  -7.439927  -6.433589  -3.681001  11.953818   3.217110   1.511418   0.869386   0.635138   1.714804   0.533356  -0.893018   1.805423   0.968341   6.932233   5.049876  -1.798356  15.825484  48.972672  -0.005627  61.612478   0.003994  -0.712756   2.901165  -9.580408  -0.380777  -0.022263  -2.221066 -13.043015   3.572061 -35.645126  -0.046847 -72.611975  -0.036426  -4.374530  -3.831759  17.301736  -6.958606  -0.694176   4.889434  24.106339  -0.000247  -0.002089   1.224148  -0.835635  -1.957412 -16.863728  -0.000194   0.001378  -0.042374  -1.318329   3.866392  55.621540  -0.001968   0.004634  -6.784347   1.388072  -3.244496  -0.037920   0.000059  -0.001027
 -2.434171   0.917130   5.099753  -7.209926  -6.136070  -3.664892  11.759487   3.081971   1.549105   0.747289   0.581521   1.785458   0.531750  -0.901937   1.777215   1.011003   6.903582   5.105240  -1.656507  15.742817  48.944188  -0.004934  61.294097   0.003455  -0.698694   2.916106  -9.584606  -0.494333  -0.075164  -1.995900 -13.649561   3.453818 -35.323343  -0.051344 -73.190434  -0.040725  -4.403035  -3.883685  17.390476  -7.341941  -0.736726   4.877922  23.755727  -0.000479  -0.002485   1.487933  -0.963610  -1.900474 -16.490582  -0.000136   0.001538   0.719271  -1.543803   3.742944  53.545534  -0.003714   0.005754  -7.160261   1.265660  -3.021139  -0.040110   0.000046  -0.000816
 -2.433189   0.916875   5.094434  -6.982682  -5.855337  -3.654073  11.585916   2.952390   1.588832   0.625749   0.518329   1.853051   0.529346  -0.909019   1.748039   1.048684   6.872339   5.139942  -1.523753  15.660709  48.906787  -0.004223  60.995589   0.002937  -0.687493   2.914403  -9.604960  -0.615910  -0.140031  -1.763073 -14.230700   3.326581 -35.013447  -0.053821 -73.740008  -0.043135  -4.410835  -3.998698  17.498583  -7.734915  -0.831833   4.857727  23.403718  -0.000609  -0.002602   1.740707  -1.137467  -1.800262 -16.043113  -0.000193   0.001261   1.421080  -1.745202   3.638479  51.525945  -0.005238   0.006195  -7.514145   1.150299  -2.813800  -0.044533   0.000036  -0.000642
 -2.432102   0.916536   5.088983  -6.774169  -5.523471  -3.645604  11.437314   2.797570   1.634989   0.515673   0.429648   1.922994   0.528373  -0.916301   1.720624   1.083906   6.834735   5.160998  -1.398238  15.577721  48.863265  -0.003591  60.715787   0.002503  -0.678079   2.904521  -9.645782  -0.740180  -0.218807  -1.532151 -14.783255   3.191832 -34.720130  -0.054661 -74.258549  -0.044081  -4.406966  -4.144225  17.604582  -8.114415  -0.860210   4.826112  23.059806  -0.000846  -0.003001   1.986474  -1.245803  -1.751434 -15.630700  -0.000050   0.001727   2.059813  -1.945227   3.556405  49.625692  -0.006942   0.005504  -7.844919   1.041716  -2.620686  -0.049855   0.000028  -0.000505
 -2.430912   0.916108   5.083413  -6.589285  -5.232069  -3.643732  11.308584   2.659266   1.678759   0.418266   0.346157   1.990199   0.529220  -0.922409   1.694659   1.115034   6.799271   5.175565  -1.281934  15.499057  48.818911  -0.003007  60.454257   0.002090  -0.669393   2.891076  -9.692052  -0.859911  -0.296830  -1.308763 -15.302579   3.059568 -34.443379  -0.054101 -74.745063  -0.043793  -4.397239  -4.301423  17.710946  -8.487520  -0.921140   4.785343  22.718486  -0.000985  -0.003100   2.214228  -1.380932  -1.650114 -15.169381  -0.000084   0.001721   2.656819  -2.121145   3.479434  47.847765  -0.007981   0.004930  -8.153681   0.939611  -2.441318  -0.055793   0.000021  -0.000394
 -2.429631   0.915593   5.077741  -6.430281  -4.970769  -3.649331  11.197425   2.528692   1.721818   0.333514   0.266394   2.055587   0.531551  -0.928040   1.670501   1.143357   6.765711   5.187245  -1.173812  15.424957  48.776055  -0.002472  60.210048   0.001692  -0.661199   2.876876  -9.739931  -0.972610  -0.371771  -1.096414 -15.788114   2.932254 -34.184124  -0.052475 -75.200178  -0.042591  -4.385023  -4.459475  17.814375  -8.849405  -0.974335   4.740266  22.389557  -0.001085  -0.003086   2.432350  -1.502039  -1.548700 -14.688643  -0.000102   0.001689   3.214738  -2.285358   3.408090  46.193097  -0.008482   0.004496  -8.441560   0.843672  -2.274324  -0.061956   0.000017  -0.000306
 -2.428158   0.915334   5.071939  -6.199526  -4.724672  -3.605918  11.043258   2.414006   1.711081   0.228529   0.236329   2.093133   0.474535  -0.928290   1.712614   1.148676   6.633916   5.265136  -1.090137  15.089553  48.727217  -0.001328  60.020584   0.000539  -0.668758   2.926597  -9.603806  -1.130806  -0.426027  -0.894863 -16.310553   2.733646 -34.055566  -0.056599 -75.862291  -0.047232  -4.437926  -4.425796  17.883947  -9.340427  -1.037585   4.623652  22.119462  -0.001148  -0.002893   2.786145  -1.661127  -1.273842 -14.178507  -0.000716   0.001225   3.877821  -2.473514   3.261093  43.804729  -0.009868   0.005530  -8.883589   0.808083  -1.882111   0.082425  -0.000254  -0.000489
 -2.426575   0.915073   5.065933  -5.956394  -4.402137  -3.561337  10.904405   2.257998   1.705306   0.118803   0.161515   2.123385   0.417657  -0.925591   1.751829   1.163692   6.475740   5.310046  -1.000016  14.748370  48.662223  -0.000351  59.837230  -0.000364  -0.685859   2.947050  -9.547336  -1.298095  -0.503439  -0.691584 -16.816561   2.520450 -33.941918  -0.059008 -76.507375  -0.050220  -4.458760  -4.506211  17.959408  -9.849547  -1.093483   4.488406  21.844149  -0.001280  -0.002930   3.190025  -1.802892  -1.016174 -14.019487  -0.000730   0.001087   4.482048  -2.664652   3.126509  41.401087  -0.012175   0.004908  -9.305566   0.772867  -1.515456   0.201948  -0.000352  -0.000501
 -2.424897   0.914363   5.059917  -5.721897  -3.994135  -3.461035  10.759994   2.058487   1.660311   0.014197   0.040139   2.129614   0.369303  -0.923509   1.785557   1.189818   6.299161   5.317432  -0.903737  14.414060  48.589421   0.000445  59.666890  -0.000995  -0.705153   2.952703  -9.527974  -1.468114  -0.597299  -0.463964 -17.303089   2.300458 -33.825242  -0.060663 -77.119804  -0.052354  -4.461927  -4.639577  18.019093 -10.300512  -1.111324   4.257059  21.526039  -0.001604  -0.003308   3.750940  -1.912860  -0.716620 -15.556144   0.000978  -0.001804   5.029283  -2.839662   2.957292  39.130800  -0.015007   0.002295  -9.702464   0.737354  -1.174132   0.301352  -0.000345  -0.000383
 -2.423254   0.914055   5.053757  -5.512898  -3.641086  -3.380601  10.652619   1.883591   1.610288  -0.077058  -0.074071   2.130642   0.318700  -0.920472   1.816130   1.216244   6.133636   5.350923  -0.810761  14.092763  48.516462   0.001036  59.494160  -0.001482  -0.729259   2.912952  -9.536996  -1.628106  -0.690772  -0.284254 -17.757731   2.094858 -33.725399  -0.059980 -77.688845  -0.052499  -4.455856  -4.790126  18.090035 -10.768420  -1.125284   4.065165  21.251956  -0.001699  -0.003389   4.042127  -2.025271  -0.511934 -14.923169   0.000431  -0.000515   5.588803  -2.960110   2.884722  37.205447  -0.015289  -0.000611 -10.327148   0.804355  -0.771133  -2.787417   0.005461  -0.005204
 -2.421525   0.913845   5.047484  -5.322574  -3.316961  -3.279174  10.561216   1.710841   1.544170  -0.151836  -0.189041   2.112762   0.273652  -0.917700   1.842126   1.243863   5.974815   5.372216  -0.721926  13.791504  48.449244   0.001442  59.334320  -0.001788  -0.754549   2.865148  -9.545808  -1.774623  -0.782398  -0.115522 -18.179181   1.900153 -33.638268  -0.057820 -78.221010  -0.051170  -4.451130  -4.933604  18.148104 -11.231417  -1.142942   3.838852  20.965788  -0.001786  -0.003385   4.437802  -2.137200  -0.286270 -14.463027   0.000059   0.000093   6.108021  -3.101632   2.792952  35.287875  -0.014834  -0.002486 -10.873909   0.793847  -0.428476  -5.225771   0.008477  -0.005604
